<?xml version="1.0" encoding="utf-8"?>
<!-- Generator: Adobe Illustrator 22.0.1, SVG Export Plug-In . SVG Version: 6.00 Build 0)  -->
<svg version="1.1" id="Слой_1" xmlns="http://www.w3.org/2000/svg" xmlns:xlink="http://www.w3.org/1999/xlink" x="0px" y="0px"
	 viewBox="0 0 160 53.8" style="enable-background:new 0 0 160 53.8;" xml:space="preserve">
<style type="text/css">
	.st0{fill:#FFFFFF;}
	.st1{fill:#FFFFFF;}
	.st2{fill:#FFFFFF;}
	.st3{fill-rule:evenodd;clip-rule:evenodd;fill:#FFFFFF;}
	.st4{fill-rule:evenodd;clip-rule:evenodd;fill:#FFFFFF;}
	.st5{fill-rule:evenodd;clip-rule:evenodd;fill:#FFFFFF;}
</style>
<g>
	<path class="st0" d="M122.7,5.6c-2.5-2.8-6-3.8-9.6-3.3c-6.8,0.9-12.3,7.4-13.8,14c-1.2-2.2-3.2-3.4-5.7-3.7
		c1.9-5.4,6.7-9.6,12.1-11.5c5.7-2,14.5-1.7,18.6,3.6C125.2,5.9,123.8,6.8,122.7,5.6L122.7,5.6z M100.3,25.8v4.9
		c2.2,1.3,4.7,2.1,7.4,2.1c5.4,0.1,8.9-2.3,11.1-5.3c-0.7,2.8,1.7,5,4.1,5c3.3,0,5.3-2.6,6.9-5.2c-0.6,3.6,1.5,5.2,4,5.2
		c3.2,0,5.3-2.6,6.6-5c-1.1,7.5,7.8,5.3,9.7,1.4c-5.4,18.5-27,30.1-44.1,16.5c-1-0.8-2.1,0.2-1,1.2c19.3,15.4,43.4,3.9,49.2-17.8
		c1.5-4.7,3.4-10.7,5.3-12.5c0.9-0.8,0.3-1.4-0.7-1.4c-4.5,0-7.8,9.6-10.6,13.1c-2.1,2.8-6.5,4.1-4.9-1c1-3.3,2.8-6.5,4.7-9.4
		c0.3-0.4,1-1.1,0.9-1.6c-0.1-0.6-0.5-0.7-1.6-0.6c-1.4,0.1-2.7,1-3.8,2.2c-1.5,1.7-2.7,4-3.3,5.5c-0.9,2.1-1.7,3.7-3.3,5.5
		c-1.8,2.1-4.1,3-3.7-0.7c0.2-1.6,0.7-3.6,1.4-5.6c0.7-1.9,1.4-3.7,2-5.1h4.9c1.3,0,1.3-2,0-2h-4c0.5-1.1,1.2-2.2,1.8-3.2
		c1.1-1.6,2-2.8,3.7-3.9c1.5-0.8,0.7-1.7-0.8-1.6c-1.8,0.1-3,0.7-4.4,1.9c-1.8,1.5-3.4,4-4.8,6.7h-3.7c-1.3,0-1.3,2,0,2h2.7
		c-0.7,1.6-1.4,3.2-2,4.6c-0.8,2-4.4,9-6.9,8.7c-3.3-0.5,2.4-11.9,3.1-13.2c0.7-1.3,0.9-2.4-1.1-2.1c-2,0.2-3.1,1.8-4.1,3.4
		c-0.6,1-1.3,2.3-1.9,3.6c-2.3,5.1-4.9,9.1-11.6,8.6C104.3,30.6,101.7,28.6,100.3,25.8L100.3,25.8z M127.4,8.5c1.2,0,2.1,1,2.1,2.1
		c0,1.2-1,2.1-2.1,2.1c-1.2,0-2.1-1-2.1-2.1C125.3,9.4,126.2,8.5,127.4,8.5L127.4,8.5z"/>
	<path class="st1" d="M0,31.9h9.3c7.1,0,11.1-4.1,11.1-11.5C20.4,13,16.4,9,9.3,9H0V31.9L0,31.9z M5,27.7V13.2h3.7
		c4.5,0,6.7,2.7,6.7,7.3c0,4.6-2.1,7.3-6.7,7.3H5L5,27.7z M34.2,15c-0.5-0.1-0.6-0.1-1-0.1c-2.5,0-4.4,1.3-5.4,3.5v-3.1h-4.4v16.6
		H28v-7.6c0-3,1.2-5.3,4.4-5.3c0.5,0,1,0,1.8,0.2V15L34.2,15z M51,26.8h-4.4c-0.7,1.7-1.7,2.4-3.4,2.4c-2.5,0-3.8-1.5-3.9-4.4h11.9
		v-0.5c0-5.8-3.2-9.5-8.2-9.5c-4.8,0-8.4,3.7-8.4,8.9c0,5.2,3.4,8.7,8.5,8.7C47,32.4,50,30.4,51,26.8L51,26.8z M46.6,21.9h-7.3
		c0.3-2.3,1.7-3.7,3.7-3.7C45.3,18.1,46.4,19.8,46.6,21.9L46.6,21.9z M69.3,31.9c-0.6-1.4-0.6-3-0.6-4.5v-7.2c0-4.6-3.9-5.4-7.3-5.4
		c-4.8,0-7.5,1.9-7.7,5.6h4.3c0.3-1.9,1.2-2.5,3.3-2.5c2,0,3,0.7,3,2.2c0,1.4-1.1,1.6-4.1,2c-3.3,0.4-7.3,0.9-7.3,5.3
		c0,3.1,2.3,5,5.9,5c2,0,4-0.7,5.4-2.1c0.1,0.7,0.1,1,0.3,1.6H69.3L69.3,31.9z M64.3,23.8v1.9c0,2.4-1.7,3.7-4.1,3.7
		c-1.6,0-2.5-0.8-2.5-2.2c0-2,1.8-2.2,3.4-2.5C62.3,24.5,63.3,24.5,64.3,23.8L64.3,23.8z M98,31.9V20.7c0-3.5-1.9-5.9-5.7-5.9
		c-2.4,0-4.1,0.9-5.5,2.7c-0.8-1.8-2.5-2.7-4.7-2.7c-2.4,0-4,0.9-5.3,2.7v-2.3h-4.4v16.6h4.6v-9c0-2.3,0.7-4.4,3.3-4.4
		c2.2,0,2.5,1.5,2.5,3.3v10.1h4.6v-9.4c0-2.3,0.8-4,3.2-4c2.4,0,2.6,1.6,2.6,3.4v9.9H98L98,31.9z"/>
	<path class="st0" d="M23.6,42.3h2.2c1.7,0,2.6-0.9,2.6-2.7c0-1.7-0.9-2.7-2.6-2.7h-2.2V42.3L23.6,42.3z M24.8,41.3v-3.4h0.9
		c1.1,0,1.5,0.6,1.5,1.7c0,1.1-0.5,1.7-1.5,1.7H24.8L24.8,41.3z M35.8,36.9h-4v5.3h4v-1h-2.9V40h2.6v-0.9h-2.6v-1.2h2.8V36.9
		L35.8,36.9z M38.6,36.9l1.7,5.3h1.3l1.8-5.3h-1.2l-1.2,3.7l-1.2-3.7H38.6L38.6,36.9z M50.5,36.9h-4v5.3h4v-1h-2.9V40h2.6v-0.9h-2.6
		v-1.2h2.8V36.9L50.5,36.9z M57.7,41.3h-2.6v-4.3H54v5.3h3.8V41.3L57.7,41.3z M63.4,36.8c-1.6,0-2.6,1.1-2.6,2.8
		c0,1.7,1.1,2.8,2.6,2.8c1.6,0,2.6-1.1,2.6-2.8C66,37.9,65,36.8,63.4,36.8L63.4,36.8z M63.4,37.8c0.9,0,1.4,0.7,1.4,1.8
		c0,1.1-0.5,1.8-1.4,1.8c-0.9,0-1.5-0.7-1.5-1.8C62,38.5,62.5,37.8,63.4,37.8L63.4,37.8z M69.4,36.9v5.3h1.2v-1.9h1.2
		c1.1,0,1.9-0.5,1.9-1.7c0-1.2-0.8-1.7-2-1.7H69.4L69.4,36.9z M70.6,37.9h1c0.5,0,0.9,0.2,0.9,0.8c0,0.6-0.4,0.8-0.9,0.8h-1V37.9
		L70.6,37.9z M77,42.3h1.1v-3.7l1.3,3.7h0.9l1.3-3.8v3.8h1.1v-5.3h-1.6l-1.2,3.7l-1.2-3.7H77V42.3L77,42.3z M90.4,36.9h-4v5.3h4v-1
		h-2.9V40h2.6v-0.9h-2.6v-1.2h2.8V36.9L90.4,36.9z M93.8,42.3H95v-3.6l2.2,3.6h1.2v-5.3h-1.1v3.6L95,36.9h-1.2V42.3L93.8,42.3z
		 M105.9,36.9h-4.4v1h1.6v4.3h1.2v-4.3h1.6V36.9L105.9,36.9z"/>
</g>
</svg>
